<?xml version="1.0" encoding="UTF-8"?>
<!-- Created with Inkscape (http://www.inkscape.org/) -->
<svg width="328.47mm" height="101.31mm" version="1.1" viewBox="0 0 328.47 101.31" xml:space="preserve" xmlns="http://www.w3.org/2000/svg"><defs><style>.cls-1{fill:#1697f6;}.cls-2{fill:#7bc6ff;}.cls-3{fill:#1867c0;}.cls-4{fill:#aeddff;}</style></defs><g transform="translate(-7.8644 -11.585)"><path d="m94.31 91.4c5.06 3e-6 9.1619 4.1019 9.1619 9.1619 0 5.06-4.1019 9.1619-9.1619 9.1619-5.06 0-9.1619-4.1019-9.1619-9.1619h-52.065c-1e-6 5.06-4.1019 9.1619-9.1619 9.1619-5.06 0-9.1619-4.1019-9.1619-9.1619-1e-6 -5.06 4.1019-9.1619 9.1619-9.1619 1.1079 1e-6 2.1699 0.19666 3.153 0.55698l3.6149-13.491h69.617l9.746-36.373-88.226-13.055-2.552-9.5241-8.234-4.7539" fill="none" stop-color="#000000" stroke="#000" stroke-linecap="round" stroke-linejoin="round" stroke-width="6.35" style="font-variation-settings:normal"/><g stroke-width=".26458" aria-label="SHOPIT!"><path d="m142.79 53.799q-1.7526-1.0515-3.6219-1.8694-1.5773-0.70102-3.5635-1.2852-1.9278-0.6426-3.7972-0.6426-1.5189 0-2.4536 0.46735-0.87627 0.46735-0.87627 1.5773 0 0.81786 0.52576 1.3436 0.52577 0.52576 1.5189 0.99311 0.99311 0.40893 2.3952 0.81786 1.4605 0.40893 3.2714 0.99311 2.8625 0.87628 5.1408 1.9278 2.3367 1.0515 3.9724 2.512 1.6357 1.402 2.512 3.4467 0.87627 2.0446 0.87627 4.9656 0 3.7388-1.402 6.3092-1.3436 2.512-3.6219 4.0309-2.2199 1.5189-5.0824 2.2199-2.8041 0.6426-5.6666 0.6426-2.2783 0-4.6735-0.35051t-4.7903-0.99311q-2.3367-0.6426-4.5566-1.5189-2.1615-0.87627-4.0309-1.9862l4.9071-9.9895q2.0446 1.2852 4.2645 2.2783 1.8694 0.87628 4.2061 1.5773 2.3952 0.70102 4.8487 0.70102 1.8694 0 2.5704-0.46735 0.75944-0.52576 0.75944-1.3436 0-0.87628-0.75944-1.4605-0.70102-0.6426-1.9862-1.1099-1.2852-0.46735-2.9793-0.93469-1.6357-0.46735-3.5051-1.1099-2.7457-0.93469-4.7319-1.9862-1.9862-1.1099-3.2714-2.4536-1.2852-1.402-1.9278-3.1546-0.58419-1.7525-0.58419-4.0309 0-3.4467 1.2268-6.0755 1.2852-2.6288 3.4467-4.3814 2.1615-1.7525 4.9071-2.6288 2.8041-0.93469 5.9002-0.93469 2.2783 0 4.4398 0.46735 2.1615 0.40893 4.1477 1.1099 2.0446 0.6426 3.7972 1.4605 1.7526 0.75944 3.1546 1.4605z"/><path d="m190.4 40.246v41.477h-11.392v-16.24h-13.904v16.24h-11.392v-41.477h11.392v15.306h13.904v-15.306z"/><path d="m216.22 82.073q-4.7319 0-8.5875-1.811t-6.6013-4.7319q-2.7457-2.9793-4.2645-6.7765-1.5189-3.7972-1.5189-7.8281 0-4.0893 1.5773-7.8865 1.5773-3.7972 4.3814-6.6597 2.8625-2.9209 6.7181-4.615 3.914-1.7525 8.5291-1.7525 4.7319 0 8.5875 1.811t6.6013 4.7903q2.7457 2.9793 4.2061 6.7765 1.5189 3.7972 1.5189 7.7696 0 4.0893-1.5773 7.8865-1.5773 3.7388-4.3814 6.6597-2.8041 2.8625-6.7181 4.615-3.8556 1.7525-8.4706 1.7525zm-9.4054-21.031q0 2.1031 0.58419 4.0893 0.58418 1.9278 1.7526 3.4467 1.1684 1.5189 2.9209 2.4536 1.811 0.93469 4.2645 0.93469 2.4536 0 4.2645-0.93469 1.811-0.99311 2.9209-2.512 1.1684-1.5773 1.6941-3.5635 0.58418-1.9862 0.58418-4.0309 0-2.1031-0.58418-4.0309-0.58419-1.9862-1.811-3.4467-1.1684-1.5189-2.9793-2.3952-1.7526-0.93469-4.1477-0.93469-2.4536 0-4.2645 0.93469-1.7526 0.93469-2.9209 2.512-1.1684 1.5189-1.7526 3.5051-0.52577 1.9278-0.52577 3.9724z"/><path d="m242.22 81.723v-41.477h17.876q3.0378 0 5.6082 1.2852 2.5704 1.2268 4.3814 3.2714 1.8694 1.9862 2.9209 4.615 1.0515 2.5704 1.0515 5.1992 0 2.7457-0.99311 5.3745-0.99311 2.5704-2.8041 4.615-1.7526 1.9862-4.323 3.213-2.512 1.1684-5.5497 1.1684h-6.7765v12.735zm11.392-22.666h6.0171q1.0515 0 1.9278-0.93469 0.9347-0.99311 0.9347-3.5051 0-2.5704-1.0515-3.5051t-2.1031-0.93469h-5.725z"/><path d="m280.02 81.723v-41.477h5.2576v41.477z"/><path d="m325.11 44.919h-14.312v36.804h-5.2576v-36.804h-14.312v-4.6735h33.883z"/><path d="m331.19 67.703v-27.866h5.1408v27.866zm0 14.02v-7.2439h5.1408v7.2439z"/></g><g fill="none" stroke="#000" stroke-linecap="round" stroke-linejoin="round" stroke-width="6.35"><path d="m90.421 70.263 5.8107-21.686" stop-color="#000000" style="font-variation-settings:normal"/><path d="m78.372 70.139 6.2052-23.158" stop-color="#000000" style="font-variation-settings:normal"/><path d="m66.256 70.263 6.6988-25" stop-color="#000000" style="font-variation-settings:normal"/><path d="m54.173 70.263 7.1428-26.657" stop-color="#000000" style="font-variation-settings:normal"/><path d="m42.091 70.263 7.5869-28.315" stop-color="#000000" style="font-variation-settings:normal"/><path d="m30.008 70.263 8.0309-29.972" stop-color="#000000" style="font-variation-settings:normal"/></g></g></svg>
